<svg xmlns="http://www.w3.org/2000/svg" viewBox="0 0 512 512">
  <defs>
    <linearGradient id="g" x1="0" y1="0" x2="1" y2="1">
      <stop offset="0%" stop-color="#6366F1"/>
      <stop offset="100%" stop-color="#3B82F6"/>
    </linearGradient>
  </defs>
  <rect width="512" height="512" rx="112" fill="url(#g)"/>
  <path fill="#fff" d="M256 128 96 208l160 80 128-64v96a16 16 0 0 1-32 0v-72l-96 48-160-80v-16l160-80 160 80-32 16-128-64-96 48 96 48 96-48v-16l-96-48Z"/>
  <path fill="#fff" opacity="0.85" d="M160 296v56c0 8 5 16 13 19l72 32a32 32 0 0 0 22 0l72-32c8-3 13-11 13-19v-56l-96 48-96-48Z"/>
</svg>